<svg xmlns="http://www.w3.org/2000/svg" xmlns:xlink="http://www.w3.org/1999/xlink" viewBox="0 0 320.69 292.46"><defs><style>.cls-1{fill:url(#linear-gradient);}.cls-2{fill:#fff;}.cls-3{fill:url(#linear-gradient-2);}.cls-4{font-size:47px;fill:#231f20;font-family:Gilroy-Bold;font-weight:700;}.cls-5{letter-spacing:-0.01em;}.cls-6{letter-spacing:-0.03em;}</style><linearGradient id="linear-gradient" x1="265.23" y1="-214.1" x2="431.65" y2="-214.1" gradientTransform="translate(-56.87 -265.23) rotate(90)" gradientUnits="userSpaceOnUse"><stop offset="0" stop-color="#76abc0"/><stop offset="1" stop-color="#155082"/><stop offset="1" stop-color="#174f7f"/><stop offset="1" stop-color="#284b69"/><stop offset="1" stop-color="#344858"/><stop offset="1" stop-color="#3d464d"/><stop offset="1" stop-color="#434446"/><stop offset="1" stop-color="#444"/></linearGradient><linearGradient id="linear-gradient-2" x1="138.36" y1="106.6" x2="206.82" y2="106.6" gradientUnits="userSpaceOnUse"><stop offset="0" stop-color="#ed1b68"/><stop offset="0.19" stop-color="#ed2a73"/><stop offset="0.55" stop-color="#ed5390"/><stop offset="1" stop-color="#ee8eba"/></linearGradient></defs><g id="Layer_2" data-name="Layer 2"><g id="Layer_1-2" data-name="Layer 1"><circle class="cls-1" cx="157.24" cy="83.21" r="83.21"/><path class="cls-2" d="M178,61.5H164.41A10.2,10.2,0,0,1,154.2,51.29V37.68a3.37,3.37,0,0,0-3.4-3.41H120.17a6.83,6.83,0,0,0-6.8,6.81v68.06a6.83,6.83,0,0,0,6.8,6.81h54.45a6.83,6.83,0,0,0,6.8-6.81V64.9A3.37,3.37,0,0,0,178,61.5Zm-13.61,40.83h-34a3.4,3.4,0,1,1,0-6.8h34a3.4,3.4,0,1,1,0,6.8Zm0-13.61h-34a3.4,3.4,0,1,1,0-6.8h34a3.4,3.4,0,1,1,0,6.8Zm0-13.61h-34a3.41,3.41,0,0,1,0-6.81h34a3.41,3.41,0,0,1,0,6.81ZM161,37.68V47.89a6.82,6.82,0,0,0,6.8,6.8H178a3.36,3.36,0,0,0,2.38-5.78L166.79,35.3A3.38,3.38,0,0,0,161,37.68Z"/><path class="cls-3" d="M205.7,134.34l-12.88-12.88a30.4,30.4,0,1,0-5.37,5.38l12.88,12.88a3.8,3.8,0,0,0,5.37-5.37ZM146,102.83a22.8,22.8,0,1,1,22.8,22.8A22.79,22.79,0,0,1,146,102.83Z"/><text class="cls-4" transform="translate(47.19 208.69)">Document<tspan x="18.87" y="56.4">Anal</tspan><tspan class="cls-5" x="118.42" y="56.4">y</tspan><tspan class="cls-6" x="142.57" y="56.4">z</tspan><tspan x="163.4" y="56.4">er</tspan></text></g></g></svg>