<svg xmlns="http://www.w3.org/2000/svg" xmlns:xlink="http://www.w3.org/1999/xlink" viewBox="0 0 166.42 166.42"><defs><style>.cls-1{fill:url(#linear-gradient);}.cls-2{fill:#fff;}.cls-3{fill:url(#linear-gradient-2);}</style><linearGradient id="linear-gradient" x1="160.26" y1="196.46" x2="326.68" y2="196.46" gradientTransform="translate(279.67 -160.26) rotate(90)" gradientUnits="userSpaceOnUse"><stop offset="0" stop-color="#76abc0"/><stop offset="1" stop-color="#155082"/><stop offset="1" stop-color="#174f7f"/><stop offset="1" stop-color="#284b69"/><stop offset="1" stop-color="#344858"/><stop offset="1" stop-color="#3d464d"/><stop offset="1" stop-color="#434446"/><stop offset="1" stop-color="#444"/></linearGradient><linearGradient id="linear-gradient-2" x1="64.33" y1="106.6" x2="132.79" y2="106.6" gradientUnits="userSpaceOnUse"><stop offset="0" stop-color="#ed1b68"/><stop offset="0.19" stop-color="#ed2a73"/><stop offset="0.55" stop-color="#ed5390"/><stop offset="1" stop-color="#ee8eba"/></linearGradient></defs><g id="Layer_2" data-name="Layer 2"><g id="Layer_1-2" data-name="Layer 1"><circle class="cls-1" cx="83.21" cy="83.21" r="83.21"/><path class="cls-2" d="M104,61.5H90.38a10.19,10.19,0,0,1-10.2-10.21V37.68a3.38,3.38,0,0,0-3.41-3.41H46.15a6.83,6.83,0,0,0-6.81,6.81v68.06A6.83,6.83,0,0,0,46.15,116h54.44a6.83,6.83,0,0,0,6.81-6.81V64.9A3.37,3.37,0,0,0,104,61.5ZM90.38,102.33h-34a3.4,3.4,0,1,1,0-6.8h34a3.4,3.4,0,1,1,0,6.8Zm0-13.61h-34a3.4,3.4,0,1,1,0-6.8h34a3.4,3.4,0,1,1,0,6.8Zm0-13.61h-34a3.41,3.41,0,1,1,0-6.81h34a3.41,3.41,0,1,1,0,6.81ZM87,37.68V47.89a6.82,6.82,0,0,0,6.81,6.8H104a3.36,3.36,0,0,0,2.38-5.78L92.77,35.3A3.38,3.38,0,0,0,87,37.68Z"/><path class="cls-3" d="M131.68,134.34,118.8,121.46a30.43,30.43,0,1,0-5.38,5.38l12.88,12.88a3.8,3.8,0,1,0,5.38-5.37ZM72,102.83a22.8,22.8,0,1,1,22.8,22.8A22.79,22.79,0,0,1,72,102.83Z"/></g></g></svg>